<svg width="65" height="76" viewBox="0 0 65 76" fill="none" xmlns="http://www.w3.org/2000/svg">
<path d="M33.7764 76C24.6365 76 17.5552 74.0466 12.5319 70.1394C7.50858 66.2324 4.69768 60.9381 4 53.3333L0 54L10 39.6667L24.2529 50L19.9622 50.5694C20.3808 54.1974 21.811 56.9882 24.2529 58.9416C26.6949 60.8253 30.0785 61.7673 34.4042 61.7673C38.102 61.7673 40.9277 61.1394 42.8811 59.8835C44.9044 58.558 45.916 56.709 45.916 54.3369C45.916 52.1742 44.8696 50.4647 42.7765 49.209C40.6833 47.9531 37.2299 46.767 32.4159 45.6507C27.253 44.395 22.8925 42.8948 19.3343 41.1506C15.7762 39.3367 13.09 36.9996 11.2761 34.1389C9.46208 31.2784 8.5551 27.6505 8.5551 23.2552C8.5551 18.6505 9.74116 14.5689 12.1133 11.0108C14.4854 7.45261 17.7994 4.69676 22.0553 2.74325C26.3111 0.719965 30.4972 0 36.0786 0C41.6602 0 45.3333 0.888868 51 4.66667C56.6667 8.44447 58.1814 14.1976 58.6667 16.1387C60.007 21.4999 59.3333 24.3333 59.3333 24.3333L64.3333 23.2552L57 35.3948L44 27.3366L49.1602 26.0001C49.1602 20.2638 42.8811 13.9411 36.0786 13.9411C33.0088 13.9411 30.532 14.6737 28.6484 16.1387C26.7647 17.5343 25.8227 19.4526 25.8227 21.8947C25.8227 24.1273 26.7296 25.9412 28.5437 27.3366C30.3578 28.6621 33.6716 29.918 38.4858 31.1041C43.5788 32.3599 47.9741 33.7901 51.6718 35.3948C55.3696 36.9297 58.1953 39.0577 60.1487 41.7786C62.1721 44.4996 63.1837 48.1974 63.1837 52.8717C63.1837 57.4067 61.9628 61.4184 59.5208 64.9069C57.0789 68.3952 53.6253 71.1163 49.1602 73.0697C44.7649 75.0231 39.6369 76 33.7764 76Z" fill="#448B2A"/>
</svg>
