<svg width="183" height="54" viewBox="0 0 183 54" fill="none" xmlns="http://www.w3.org/2000/svg">
<g clip-path="url(#clip0_36_584)">
<path d="M72.5413 21.6084H79.0702L71.5036 43.6164H63.2453L59.7431 30.9045L55.5058 43.6164H47.2907L40.416 21.6084H47.2475L51.701 37.3037L56.7597 21.6084H63.0724L67.4393 37.4334L72.5413 21.6084ZM102.036 21.6949V43.6164H95.3777L95.5939 40.3304C94.0086 42.8093 91.6593 44.0488 88.5463 44.0488C86.5862 44.0488 84.9143 43.602 83.5307 42.7085C82.1471 41.8149 81.095 40.5754 80.3744 38.99C79.6538 37.4046 79.2935 35.5886 79.2935 33.542C79.2935 31.0919 79.7979 28.9444 80.8068 27.0996C81.8156 25.2548 83.1704 23.828 84.8711 22.8191C86.5717 21.7814 88.4742 21.2625 90.5784 21.2625C91.962 21.2625 93.1871 21.5508 94.2536 22.1273C95.3201 22.675 96.1416 23.41 96.7179 24.3324L97.2802 21.6949H102.036ZM91.227 27.0131C89.6416 27.0131 88.3877 27.6041 87.4653 28.7859C86.5717 29.9677 86.125 31.481 86.125 33.3259C86.125 34.9112 86.4709 36.1363 87.1627 37.0011C87.8833 37.8658 88.8489 38.2982 90.0596 38.2982C91.5296 38.2982 92.7835 37.6929 93.8212 36.4822C94.8877 35.2716 95.421 33.6862 95.421 31.7261C95.421 30.256 95.0463 29.103 94.2968 28.267C93.5474 27.4311 92.5241 27.0131 91.227 27.0131ZM107.145 52.264V21.6084H113.804L113.588 24.981C115.173 22.502 117.522 21.2625 120.635 21.2625C122.596 21.2625 124.267 21.7093 125.651 22.6029C127.034 23.4965 128.087 24.736 128.807 26.3213C129.528 27.9067 129.888 29.7227 129.888 31.7693C129.888 34.2194 129.384 36.3669 128.375 38.2117C127.366 40.0565 126.011 41.4978 124.31 42.5355C122.61 43.5444 120.707 44.0488 118.603 44.0488C117.594 44.0488 116.672 43.9047 115.836 43.6164C115.029 43.3282 114.309 42.9246 113.674 42.4058L113.761 43.6164V52.264H107.145ZM117.912 38.2982C119.497 38.2982 120.751 37.7073 121.673 36.5255C122.596 35.3148 123.057 33.7871 123.057 31.9422C123.057 30.3857 122.696 29.175 121.976 28.3103C121.284 27.4455 120.332 27.0131 119.122 27.0131C117.652 27.0131 116.383 27.6185 115.318 28.8291C114.279 30.0398 113.761 31.6252 113.761 33.5853C113.761 35.0265 114.135 36.1796 114.885 37.0443C115.634 37.8802 116.643 38.2982 117.912 38.2982ZM140.488 21.6084V43.6164H133.874V21.6084H140.488ZM146.738 43.6164V27.0996H142.674V21.6084H146.738V20.9166C146.738 18.9277 147.17 17.2126 148.035 15.7713C148.899 14.3012 150.067 13.1771 151.537 12.3988C153.035 11.5917 154.722 11.1881 156.596 11.1881C158.816 11.1881 160.617 11.7358 162.001 12.8312C163.384 13.9265 164.234 15.6128 164.551 17.89L158.888 18.5818C158.8 18.0053 158.542 17.5585 158.109 17.2414C157.677 16.9243 157.129 16.7658 156.466 16.7658C155.457 16.7658 154.664 17.0829 154.088 17.717C153.54 18.3223 153.267 19.2015 153.267 20.3545V21.6084H159.19V27.0996H153.353V43.6164H146.738ZM168.977 52.6964C168.084 52.6964 167.133 52.6243 166.124 52.4802C165.115 52.3649 164.135 52.1775 163.184 51.9181C162.261 51.6587 161.483 51.3128 160.849 50.8804L162.405 45.2595C163.414 45.7495 164.467 46.1387 165.562 46.4269C166.686 46.744 167.954 46.9025 169.367 46.9025C171.759 46.9025 173.46 46.3548 174.469 45.2595C175.507 44.1641 176.097 42.449 176.241 40.1142L176.371 38.3414C175.478 39.8692 174.354 41.0654 172.999 41.9302C171.644 42.7661 170.116 43.1841 168.416 43.1841C165.822 43.1841 163.876 42.3193 162.579 40.5898C161.282 38.8603 160.647 36.439 160.676 33.3259L160.762 21.6084H167.378L167.291 32.8502C167.291 34.1474 167.522 35.1707 167.984 35.9201C168.444 36.6696 169.193 37.0443 170.232 37.0443C171.413 37.0443 172.436 36.5687 173.301 35.6175C174.166 34.6662 174.844 33.0808 175.334 30.8613C175.823 28.6129 176.097 25.5286 176.155 21.6084H182.554V39.3359C182.554 43.9479 181.329 47.3205 178.879 49.4535C176.458 51.6154 173.157 52.6964 168.977 52.6964Z" fill="#143508"/>
<path d="M136.538 14.6202C135.376 10.844 129.469 11.7154 129.469 11.7154C129.469 11.7154 129.76 19.5584 135.279 18.3965C134.892 15.5885 133.342 14.5234 133.342 14.5234C136.054 14.5234 136.247 17.8155 136.247 17.8155V18.3965H138.184V18.2028C138.184 18.2028 138.184 14.4266 141.088 13.4583C141.088 13.4583 139.152 16.4599 139.152 18.3965C145.93 19.0743 145.93 9.68208 145.93 9.68208C145.93 9.68208 137.312 8.71381 136.538 14.6202Z" fill="#90CC61"/>
<path d="M136.538 14.6202C135.376 10.844 129.469 11.7154 129.469 11.7154C129.469 11.7154 129.76 19.5584 135.279 18.3965C134.892 15.5885 133.342 14.5234 133.342 14.5234C136.054 14.5234 136.247 17.8155 136.247 17.8155V18.3965H138.184V18.2028C138.184 18.2028 138.184 14.4266 141.088 13.4583C141.088 13.4583 139.152 16.4599 139.152 18.3965C145.93 19.0743 145.93 9.68208 145.93 9.68208C145.93 9.68208 137.312 8.71381 136.538 14.6202Z" fill="black" fill-opacity="0.2"/>
<path d="M20.4106 45.9252C14.8875 45.9252 10.6084 44.7447 7.57284 42.3836C4.53732 40.0227 2.83874 36.8234 2.41714 32.2279L0 32.6308L6.04285 23.9692L14.6557 30.2136L12.0629 30.5576C12.3158 32.75 13.1801 34.4365 14.6557 35.6169C16.1313 36.7552 18.176 37.3245 20.7899 37.3245C23.0244 37.3245 24.732 36.945 25.9124 36.1861C27.1351 35.3851 27.7463 34.2678 27.7463 32.8343C27.7463 31.5274 27.114 30.4944 25.8492 29.7356C24.5843 28.9767 22.4974 28.2599 19.5884 27.5854C16.4685 26.8265 13.8336 25.92 11.6834 24.866C9.53331 23.7699 7.91011 22.3576 6.81396 20.6289C5.71779 18.9003 5.16972 16.708 5.16972 14.0519C5.16972 11.2693 5.88643 8.80288 7.31987 6.65276C8.75331 4.50257 10.7559 2.83724 13.3277 1.65674C15.8994 0.434092 18.429 -0.000976562 21.8018 -0.000976562C25.1746 -0.000976562 27.3942 0.536159 30.8185 2.81905C34.2428 5.10194 35.1581 8.57849 35.4514 9.75149C36.2613 12.9912 35.8542 14.7035 35.8542 14.7035L38.8756 14.0519L34.4442 21.3878L26.5885 16.5183L29.7068 15.7107C29.7068 12.2442 25.9124 8.42352 21.8018 8.42352C19.9467 8.42352 18.45 8.86621 17.3118 9.75149C16.1735 10.5948 15.6043 11.7541 15.6043 13.2298C15.6043 14.5789 16.1523 15.6751 17.2485 16.5183C18.3448 17.3193 20.3472 18.0782 23.2564 18.795C26.334 19.5538 28.99 20.4181 31.2245 21.3878C33.459 22.3153 35.1665 23.6013 36.347 25.2455C37.5696 26.8898 38.1809 29.1243 38.1809 31.9489C38.1809 34.6894 37.4432 37.1136 35.9675 39.2217C34.4919 41.3297 32.4049 42.974 29.7068 44.1544C27.0508 45.3348 23.952 45.9252 20.4106 45.9252Z" fill="#143508"/>
</g>
<defs>
<clipPath id="clip0_36_584">
<rect width="183" height="53.099" fill="white"/>
</clipPath>
</defs>
</svg>
