<svg width="81" height="41" viewBox="0 0 81 41" fill="none" xmlns="http://www.w3.org/2000/svg">
<path d="M20.2234 36.0714L17.7798 33.8468C9.10056 25.9766 3.37061 20.769 3.37061 14.4155C3.37061 9.20801 7.44898 5.14648 12.6396 5.14648C15.572 5.14648 18.3865 6.51156 20.2234 8.65187C22.0604 6.51156 24.8748 5.14648 27.8072 5.14648C32.9978 5.14648 37.0762 9.20801 37.0762 14.4155C37.0762 20.769 31.3463 25.9766 22.6671 33.8468L20.2234 36.0714Z" fill="url(#paint0_linear_113_737)"/>
<g opacity="0.8">
<path d="M33.7057 36.0714L31.2621 33.8468C22.5829 25.9766 16.8529 20.769 16.8529 14.4155C16.8529 9.20801 20.9313 5.14648 26.1219 5.14648C29.0543 5.14648 31.8688 6.51156 33.7057 8.65187C35.5427 6.51156 38.3571 5.14648 41.2895 5.14648C46.4801 5.14648 50.5585 9.20801 50.5585 14.4155C50.5585 20.769 44.8286 25.9766 36.1494 33.8468L33.7057 36.0714Z" fill="url(#paint1_linear_113_737)"/>
</g>
<g opacity="0.6">
<path d="M47.1879 36.0714L44.7442 33.8468C36.065 25.9766 30.3351 20.769 30.3351 14.4155C30.3351 9.20801 34.4135 5.14648 39.6041 5.14648C42.5365 5.14648 45.3509 6.51156 47.1879 8.65187C49.0248 6.51156 51.8393 5.14648 54.7716 5.14648C59.9623 5.14648 64.0407 9.20801 64.0407 14.4155C64.0407 20.769 58.3107 25.9766 49.6315 33.8468L47.1879 36.0714Z" fill="url(#paint2_linear_113_737)"/>
</g>
<g opacity="0.4">
<path d="M60.6702 36.0714L58.2265 33.8468C49.5473 25.9766 43.8174 20.769 43.8174 14.4155C43.8174 9.20801 47.8958 5.14648 53.0864 5.14648C56.0188 5.14648 58.8332 6.51156 60.6702 8.65187C62.5071 6.51156 65.3216 5.14648 68.2539 5.14648C73.4446 5.14648 77.523 9.20801 77.523 14.4155C77.523 20.769 71.793 25.9766 63.1138 33.8468L60.6702 36.0714Z" fill="url(#paint3_linear_113_737)"/>
</g>
<defs>
<linearGradient id="paint0_linear_113_737" x1="20.2234" y1="5.14648" x2="20.2233" y2="36.0714" gradientUnits="userSpaceOnUse">
<stop stop-color="#90CC61"/>
<stop offset="1" stop-color="#448B2A"/>
</linearGradient>
<linearGradient id="paint1_linear_113_737" x1="33.7057" y1="5.14648" x2="33.7056" y2="36.0714" gradientUnits="userSpaceOnUse">
<stop stop-color="#90CC61"/>
<stop offset="1" stop-color="#448B2A"/>
</linearGradient>
<linearGradient id="paint2_linear_113_737" x1="47.1879" y1="5.14648" x2="47.1878" y2="36.0714" gradientUnits="userSpaceOnUse">
<stop stop-color="#90CC61"/>
<stop offset="1" stop-color="#448B2A"/>
</linearGradient>
<linearGradient id="paint3_linear_113_737" x1="60.6702" y1="5.14648" x2="60.6701" y2="36.0714" gradientUnits="userSpaceOnUse">
<stop stop-color="#90CC61"/>
<stop offset="1" stop-color="#448B2A"/>
</linearGradient>
</defs>
</svg>
