<svg width="55" height="28" viewBox="0 0 55 28" fill="none" xmlns="http://www.w3.org/2000/svg">
<path d="M14.1039 24.0619L12.4848 22.588C6.73431 17.3735 2.93787 13.9232 2.93787 9.71358C2.93787 6.26328 5.64004 3.57227 9.07918 3.57227C11.0221 3.57227 12.8868 4.47671 14.1039 5.8948C15.321 4.47671 17.1857 3.57227 19.1286 3.57227C22.5677 3.57227 25.2699 6.26328 25.2699 9.71358C25.2699 13.9232 21.4735 17.3735 15.723 22.588L14.1039 24.0619Z" fill="#FFFDF4"/>
<g opacity="0.8">
<path d="M23.0367 24.0619L21.4177 22.588C15.6672 17.3735 11.8707 13.9232 11.8707 9.71358C11.8707 6.26328 14.5729 3.57227 18.012 3.57227C19.9549 3.57227 21.8197 4.47671 23.0367 5.8948C24.2538 4.47671 26.1186 3.57227 28.0615 3.57227C31.5006 3.57227 34.2028 6.26328 34.2028 9.71358C34.2028 13.9232 30.4063 17.3735 24.6558 22.588L23.0367 24.0619Z" fill="#FFFDF4"/>
</g>
<g opacity="0.6">
<path d="M31.9695 24.0619L30.3504 22.588C24.5999 17.3735 20.8035 13.9232 20.8035 9.71358C20.8035 6.26328 23.5056 3.57227 26.9448 3.57227C28.8877 3.57227 30.7524 4.47671 31.9695 5.8948C33.1866 4.47671 35.0513 3.57227 36.9942 3.57227C40.4333 3.57227 43.1355 6.26328 43.1355 9.71358C43.1355 13.9232 39.3391 17.3735 33.5886 22.588L31.9695 24.0619Z" fill="#FFFDF4"/>
</g>
<g opacity="0.4">
<path d="M40.9023 24.0619L39.2833 22.588C33.5328 17.3735 29.7363 13.9232 29.7363 9.71358C29.7363 6.26328 32.4385 3.57227 35.8776 3.57227C37.8205 3.57227 39.6853 4.47671 40.9023 5.8948C42.1194 4.47671 43.9842 3.57227 45.9271 3.57227C49.3662 3.57227 52.0684 6.26328 52.0684 9.71358C52.0684 13.9232 48.2719 17.3735 42.5214 22.588L40.9023 24.0619Z" fill="#FFFDF4"/>
</g>
</svg>
