<svg width="40" height="40" viewBox="0 0 40 40" fill="none" xmlns="http://www.w3.org/2000/svg">
<path d="M38.9821 9.60743C38.818 8.94908 38.4967 8.34034 38.0457 7.8334C37.5948 7.32645 37.0276 6.93641 36.3929 6.69671C30.2857 4.33957 20.5357 4.35743 20 4.35743C19.4643 4.35743 9.71429 4.33957 3.60714 6.69671C2.97239 6.93641 2.40523 7.32645 1.95427 7.8334C1.5033 8.34034 1.18199 8.94908 1.01786 9.60743C0.553572 11.3753 0 14.6253 0 20.0003C0 25.3753 0.553572 28.6253 1.01786 30.3931C1.18199 31.0515 1.5033 31.6602 1.95427 32.1672C2.40523 32.6741 2.97239 33.0642 3.60714 33.3039C9.46429 35.5717 18.6429 35.6431 19.875 35.6431H20.125C21.3571 35.6431 30.5357 35.5717 36.3929 33.3039C37.0276 33.0642 37.5948 32.6741 38.0457 32.1672C38.4967 31.6602 38.818 31.0515 38.9821 30.3931C39.4464 28.6253 40 25.3753 40 20.0003C40 14.6253 39.4464 11.3753 38.9821 9.60743ZM26.1071 20.5896L17.5357 26.3039C17.422 26.3875 17.284 26.4314 17.1429 26.4289C17.0246 26.4244 16.9087 26.394 16.8036 26.3396C16.6894 26.2802 16.594 26.1904 16.5278 26.08C16.4616 25.9697 16.4272 25.8432 16.4286 25.7146V14.286C16.4272 14.1573 16.4616 14.0308 16.5278 13.9205C16.594 13.8102 16.6894 13.7204 16.8036 13.661C16.9174 13.6002 17.0457 13.5715 17.1746 13.5778C17.3035 13.5841 17.4283 13.6252 17.5357 13.6967L26.1071 19.411C26.2067 19.4737 26.2888 19.5607 26.3457 19.6637C26.4026 19.7668 26.4324 19.8826 26.4324 20.0003C26.4324 20.118 26.4026 20.2338 26.3457 20.3368C26.2888 20.4399 26.2067 20.5268 26.1071 20.5896Z" fill="#FFFDF4"/>
</svg>
