<svg width="48" height="48" viewBox="0 0 48 48" fill="none" xmlns="http://www.w3.org/2000/svg">
<path d="M35.2875 21.9752V35.2877M35.2875 35.2877V41.5002H12.2125V35.2877M35.2875 35.2877H41.5V21.9752C41.5 19.3127 39.725 16.2064 37.0625 13.9877C34.4 11.7689 30.85 11.3252 30.85 11.3252L23.75 18.4252M12.2125 35.2877H6V21.9752C6 19.3127 7.775 16.2064 10.4375 13.9877C13.1 11.7689 16.65 11.3252 16.65 11.3252L23.75 18.4252M12.2125 35.2877V21.9752M23.75 18.4252V26.4127" stroke="#FFFDF4" stroke-width="3.55" stroke-linecap="round" stroke-linejoin="round"/>
<path d="M10.4375 13.9875C13.1 11.7687 16.65 11.325 16.65 11.325L23.75 18.425L30.85 11.325C30.85 11.325 34.4 11.7687 37.0625 13.9875L38.8375 9.99375L37.0625 6H10.4375L8.66251 9.99375L10.4375 13.9875Z" stroke="#FFFDF4" stroke-width="3.55" stroke-linecap="round" stroke-linejoin="round"/>
</svg>
