<svg width="48" height="48" viewBox="0 0 48 48" fill="none" xmlns="http://www.w3.org/2000/svg">
<path d="M24 20L16 8.8L19.2 4H28.8L32 8.8L24 20ZM31 13.6L28.6 17C33 18.8 36 23 36 28C36 31.1826 34.7357 34.2348 32.4853 36.4853C30.2348 38.7357 27.1826 40 24 40C20.8174 40 17.7652 38.7357 15.5147 36.4853C13.2643 34.2348 12 31.1826 12 28C12 23 15 18.8 19.4 17L17 13.6C11.6 16.2 8 21.6 8 28C8 32.2435 9.68571 36.3131 12.6863 39.3137C15.6869 42.3143 19.7565 44 24 44C28.2435 44 32.3131 42.3143 35.3137 39.3137C38.3143 36.3131 40 32.2435 40 28C40 21.6 36.4 16.2 31 13.6Z" fill="#E38312"/>
</svg>
