<svg width="48" height="48" viewBox="0 0 48 48" fill="none" xmlns="http://www.w3.org/2000/svg">
<path fill-rule="evenodd" clip-rule="evenodd" d="M8 34C7.46957 34 6.96086 33.7893 6.58579 33.4142C6.21071 33.0391 6 32.5304 6 32C6 31.4696 6.21071 30.9609 6.58579 30.5858C6.96086 30.2107 7.46957 30 8 30H12L18 24L12 18H8C7.48504 17.977 6.99881 17.7562 6.64255 17.3836C6.28629 17.0111 6.08747 16.5155 6.08747 16C6.08747 15.4845 6.28629 14.9889 6.64255 14.6164C6.99881 14.2438 7.48504 14.023 8 14H14L22 22L30 14H34V10L42 16.002L34 22V18H32L26 24L32 30H34V26L42 32L34 38V34H30L22 26L14 34H8Z" fill="#E38312"/>
</svg>
