<svg width="48" height="48" viewBox="0 0 48 48" fill="none" xmlns="http://www.w3.org/2000/svg">
<path d="M44.94 37.6403L42.94 29.9203L36.64 6.7403C36.5039 6.22898 36.1706 5.79245 35.7133 5.5263C35.256 5.26015 34.7118 5.18608 34.2 5.3203L26.46 7.3203C26.2753 7.11559 26.0502 6.95129 25.799 6.83771C25.5477 6.72413 25.2757 6.66373 25 6.6603H5C4.46957 6.6603 3.96086 6.87102 3.58579 7.24609C3.21071 7.62116 3 8.12987 3 8.6603V40.6603C3 41.1907 3.21071 41.6994 3.58579 42.0745C3.96086 42.4496 4.46957 42.6603 5 42.6603H25C25.5304 42.6603 26.0391 42.4496 26.4142 42.0745C26.7893 41.6994 27 41.1907 27 40.6603V24.6603L31.4 41.1003C31.5172 41.5366 31.7787 41.9204 32.1418 42.1892C32.505 42.4579 32.9485 42.5958 33.4 42.5803C33.5728 42.6 33.7472 42.6 33.92 42.5803L43.58 40.0003C43.8354 39.932 44.0747 39.8138 44.2841 39.6524C44.4935 39.4911 44.6689 39.2898 44.8 39.0603C45.011 38.6178 45.0605 38.1155 44.94 37.6403ZM12.94 38.7403H6.94V34.7403H12.94V38.7403ZM12.94 30.7403H6.94V18.7403H12.94V30.7403ZM12.94 14.7403H6.94V10.7403H12.94V14.7403ZM22.94 38.7403H16.94V34.7403H22.94V38.7403ZM22.94 30.7403H16.94V18.7403H22.94V30.7403ZM22.94 14.7403H16.94V10.7403H22.94V14.7403ZM27.44 11.2603L33.24 9.7003L34.28 13.5603L28.48 15.1203L27.44 11.2603ZM32.62 30.5803L29.52 18.9803L35.32 17.4203L38.42 29.0203L32.62 30.5803ZM34.62 38.3003L33.58 34.4403L39.38 32.8803L40.42 36.7403L34.62 38.3003Z" fill="#E38312"/>
</svg>
