<svg width="48" height="48" viewBox="0 0 48 48" fill="none" xmlns="http://www.w3.org/2000/svg">
<path d="M37.2 13.2403C34.32 13.2403 31.6 14.3603 29.66 16.3003L15.6 28.7803C14.32 30.0603 12.62 30.7603 10.8 30.7603C7.06 30.7603 4 27.7403 4 24.0003C4 20.2603 7.06 17.2403 10.8 17.2403C12.62 17.2403 14.32 17.9403 15.68 19.3003L17.94 21.3003L21 18.6203L18.44 16.4003C17.4385 15.3949 16.2476 14.598 14.9363 14.0557C13.6249 13.5133 12.2191 13.2361 10.8 13.2403C4.84 13.2403 0 18.0803 0 24.0003C0 29.9203 4.84 34.7603 10.8 34.7603C13.68 34.7603 16.4 33.6403 18.34 31.7003L32.4 19.2203C33.68 17.9403 35.38 17.2403 37.2 17.2403C40.94 17.2403 44 20.2603 44 24.0003C44 27.7403 40.94 30.7603 37.2 30.7603C35.4 30.7603 33.68 30.0603 32.32 28.7003L30 26.6803L27 29.3603L29.56 31.6003C30.5642 32.6006 31.756 33.3929 33.0671 33.9317C34.3781 34.4705 35.7826 34.7453 37.2 34.7403C43.16 34.7403 48 29.9203 48 24.0003C48 18.0003 43.16 13.2403 37.2 13.2403Z" fill="#E38312"/>
</svg>
